<svg width="24" height="25" viewBox="0 0 24 25" fill="none" xmlns="http://www.w3.org/2000/svg">
<g clip-path="url(#clip0_1_495)" filter="url(#filter0_d_1_495)">
<path d="M12.0036 4.95708C9.73214 4.95708 7.89999 6.7606 7.89999 8.99653C7.89999 11.2325 9.73214 13.036 12.0036 13.036C14.275 13.036 16.1071 11.2325 16.1071 8.99653C16.1071 6.7606 14.275 4.95708 12.0036 4.95708ZM12.0036 11.6227C10.5357 11.6227 9.33571 10.445 9.33571 8.99653C9.33571 7.5481 10.5321 6.37036 12.0036 6.37036C13.475 6.37036 14.6714 7.5481 14.6714 8.99653C14.6714 10.445 13.4714 11.6227 12.0036 11.6227ZM17.2321 4.79185C17.2321 5.31567 16.8036 5.73403 16.275 5.73403C15.7429 5.73403 15.3179 5.31216 15.3179 4.79185C15.3179 4.27153 15.7464 3.84966 16.275 3.84966C16.8036 3.84966 17.2321 4.27153 17.2321 4.79185ZM19.95 5.7481C19.8893 4.48599 19.5964 3.36802 18.6571 2.44692C17.7214 1.52583 16.5857 1.23755 15.3036 1.17427C13.9821 1.10044 10.0214 1.10044 8.69999 1.17427C7.42142 1.23403 6.28571 1.52231 5.34642 2.44341C4.40714 3.3645 4.11785 4.48247 4.05356 5.74458C3.97856 7.04536 3.97856 10.9442 4.05356 12.245C4.11428 13.5071 4.40714 14.625 5.34642 15.5461C6.28571 16.4672 7.41785 16.7555 8.69999 16.8188C10.0214 16.8926 13.9821 16.8926 15.3036 16.8188C16.5857 16.759 17.7214 16.4708 18.6571 15.5461C19.5928 14.625 19.8857 13.5071 19.95 12.245C20.025 10.9442 20.025 7.04888 19.95 5.7481ZM18.2428 13.6407C17.9643 14.3297 17.425 14.8606 16.7214 15.1383C15.6679 15.5497 13.1678 15.4547 12.0036 15.4547C10.8393 15.4547 8.33571 15.5461 7.28571 15.1383C6.58571 14.8641 6.04642 14.3333 5.76428 13.6407C5.34642 12.6036 5.44285 10.1426 5.44285 8.99653C5.44285 7.85044 5.34999 5.38599 5.76428 4.35239C6.04285 3.66333 6.58214 3.13247 7.28571 2.85474C8.33928 2.44341 10.8393 2.53833 12.0036 2.53833C13.1678 2.53833 15.6714 2.44692 16.7214 2.85474C17.4214 3.12895 17.9607 3.65981 18.2428 4.35239C18.6607 5.3895 18.5643 7.85044 18.5643 8.99653C18.5643 10.1426 18.6607 12.6071 18.2428 13.6407Z" fill="black"/>
</g>
<defs>
<filter id="filter0_d_1_495" x="0" y="0" width="24" height="26" filterUnits="userSpaceOnUse" color-interpolation-filters="sRGB">
<feFlood flood-opacity="0" result="BackgroundImageFix"/>
<feColorMatrix in="SourceAlpha" type="matrix" values="0 0 0 0 0 0 0 0 0 0 0 0 0 0 0 0 0 0 127 0" result="hardAlpha"/>
<feOffset dy="4"/>
<feGaussianBlur stdDeviation="2"/>
<feComposite in2="hardAlpha" operator="out"/>
<feColorMatrix type="matrix" values="0 0 0 0 0 0 0 0 0 0 0 0 0 0 0 0 0 0 0.25 0"/>
<feBlend mode="normal" in2="BackgroundImageFix" result="effect1_dropShadow_1_495"/>
<feBlend mode="normal" in="SourceGraphic" in2="effect1_dropShadow_1_495" result="shape"/>
</filter>
<clipPath id="clip0_1_495">
<rect width="16" height="18" fill="white" transform="translate(4)"/>
</clipPath>
</defs>
</svg>
